<?xml version="1.0" encoding="UTF-8" standalone="no"?>
<svg width="24px" height="26px" viewBox="0 0 24 26" version="1.1" xmlns="http://www.w3.org/2000/svg" xmlns:xlink="http://www.w3.org/1999/xlink">
    <!-- Generator: Sketch 3.8.3 (29802) - http://www.bohemiancoding.com/sketch -->
    <title>noun_85673_cc</title>
    <desc>Created with Sketch.</desc>
    <defs></defs>
    <g id="Page-1" stroke="none" stroke-width="1" fill="none" fill-rule="evenodd">
        <g id="Desktop-HD-Copy-5" transform="translate(-94.000000, -939.000000)" fill="#7B7B7B">
            <g id="noun_85673_cc" transform="translate(94.000000, 939.000000)">
                <g id="Group">
                    <path d="M2.11842105,25.8983636 C0.948447368,25.8983636 0,24.9721136 0,23.8301818 L0,2.06818182 C0,0.925954545 0.948447368,1.77635684e-15 2.11842105,1.77635684e-15 C3.28839474,1.77635684e-15 4.23684211,0.925954545 4.23684211,2.06818182 L4.23684211,23.8301818 C4.23684211,24.9721136 3.28839474,25.8983636 2.11842105,25.8983636 L2.11842105,25.8983636 Z" id="Shape"></path>
                    <path d="M12.1184211,25.8983636 C10.9484474,25.8983636 10,24.9721136 10,23.8301818 L10,2.06818182 C10,0.925954545 10.9484474,1.77635684e-15 12.1184211,1.77635684e-15 C13.2883947,1.77635684e-15 14.2368421,0.925954545 14.2368421,2.06818182 L14.2368421,23.8301818 C14.2368421,24.9721136 13.2883947,25.8983636 12.1184211,25.8983636 L12.1184211,25.8983636 Z" id="Shape"></path>
                    <path d="M21.1184211,25.8983636 C19.9484474,25.8983636 19,24.9721136 19,23.8301818 L19,2.06818182 C19,0.925954545 19.9484474,1.77635684e-15 21.1184211,1.77635684e-15 C22.2883947,1.77635684e-15 23.2368421,0.925954545 23.2368421,2.06818182 L23.2368421,23.8301818 C23.2368421,24.9721136 22.2883947,25.8983636 21.1184211,25.8983636 L21.1184211,25.8983636 Z" id="Shape"></path>
                </g>
            </g>
        </g>
    </g>
</svg>