<?xml version="1.0" encoding="UTF-8" standalone="no"?>
<svg width="29px" height="24px" viewBox="0 0 29 24" version="1.1" xmlns="http://www.w3.org/2000/svg" xmlns:xlink="http://www.w3.org/1999/xlink">
    <!-- Generator: Sketch 3.8.3 (29802) - http://www.bohemiancoding.com/sketch -->
    <title>Group</title>
    <desc>Created with Sketch.</desc>
    <defs></defs>
    <g id="Page-1" stroke="none" stroke-width="1" fill="none" fill-rule="evenodd">
        <g id="Desktop-HD-Copy-3" transform="translate(-1321.000000, -939.000000)" fill="#6F6F6F">
            <g id="noun_10454_cc" transform="translate(1321.000000, 939.000000)">
                <g id="Group">
                    <path d="M21.2767727,15.599 C21.4540682,15.3333333 21.6023636,15.0603333 21.7180341,14.784 C21.8412841,14.489 21.9365227,14.181 21.9997955,13.864 C22.0591136,13.5666667 22.0904205,13.2436667 22.0904205,12.8966667 C22.0904205,12.55 22.0587841,12.227 21.9997955,11.9296667 C21.9365227,11.6126667 21.8412841,11.3046667 21.7180341,11.0096667 C21.6023636,10.7333333 21.4540682,10.4603333 21.2767727,10.1946667 C21.1063977,9.93833333 20.909,9.697 20.6885341,9.474 C20.2495795,9.03 19.7345,8.674 19.1699886,8.43233333 C18.5906477,8.18533333 18.3191023,7.51033333 18.5629659,6.92466667 C18.8068295,6.33866667 19.4744886,6.06366667 20.0538295,6.31033333 C20.9073523,6.67566667 21.67025,7.198 22.3042955,7.83933333 C22.6226364,8.161 22.9129659,8.51766667 23.1696818,8.903 C23.4161818,9.27266667 23.6333523,9.67866667 23.8159205,10.116 C23.9968409,10.548 24.1372273,11.0036667 24.2318068,11.4783333 C24.3260568,11.952 24.3758182,12.427 24.3758182,12.897 C24.3758182,13.3673333 24.3263864,13.8423333 24.2318068,14.3163333 C24.1372273,14.7906667 23.9968409,15.2463333 23.8159205,15.6783333 C23.6333523,16.1156667 23.4161818,16.5213333 23.1696818,16.891 C23.0975114,16.9993333 23.0230341,17.1056667 22.9455909,17.2086667 C22.6789886,17.5656667 22.62725,17.432 22.3247273,17.1256667 C21.9635455,16.7603333 21.7911932,16.586 21.4303409,16.221 C21.1578068,15.9443333 21.0681705,15.9133333 21.2767727,15.599 L21.2767727,15.599 Z" id="Shape"></path>
                    <path d="M24.5171932,18.8443333 C24.7597386,18.5626667 24.9841591,18.2676667 25.1894659,17.96 C25.5153864,17.47 25.7922045,16.958 26.0133295,16.4296667 C26.2440114,15.8786667 26.4216364,15.3016667 26.5409318,14.7053333 C26.6549545,14.1356667 26.7142727,13.5313333 26.7142727,12.8963333 C26.7142727,12.2613333 26.654625,11.6573333 26.5409318,11.088 C26.4219659,10.4916667 26.2443409,9.91466667 26.0133295,9.36366667 C25.7922045,8.83533333 25.5153864,8.323 25.1894659,7.83333333 C24.8675,7.35133333 24.4980795,6.899 24.0874659,6.48366667 C23.6768523,6.068 23.2296591,5.69433333 22.7531364,5.36933333 C22.2690341,5.03933333 21.7621932,4.75933333 21.2398636,4.53566667 C20.6605227,4.289 20.3889773,3.61366667 20.6328409,3.02766667 C20.8767045,2.44166667 21.5446932,2.16666667 22.123375,2.41366667 C22.8045455,2.70533333 23.4425455,3.055 24.0294659,3.45533333 C24.6345114,3.868 25.1947386,4.33533333 25.7032273,4.84933333 C26.2113864,5.36366667 26.6734091,5.93066667 27.0813864,6.54266667 C27.4775,7.136 27.8228636,7.78133333 28.1108864,8.47033333 C28.3989091,9.15866667 28.6220114,9.88366667 28.7726136,10.6373333 C28.9218977,11.382 29,12.1383333 29,12.8963333 C29,13.6546667 28.9218977,14.4113333 28.7732727,15.1566667 C28.6226705,15.9103333 28.3995682,16.6353333 28.1115455,17.3236667 C27.8235227,18.0123333 27.4778295,18.6573333 27.0820455,19.251 C26.7936932,19.6836667 26.4783182,20.0933333 26.1392159,20.4783333 C25.8712955,20.782 25.8558068,20.6953333 25.5763523,20.4133333 C25.2135227,20.046 24.9502159,19.78 24.5873864,19.413 C24.3010114,19.1236667 24.2558636,19.1476667 24.5171932,18.8443333 L24.5171932,18.8443333 Z" id="Shape"></path>
                    <path d="M4.69395614,7.60576357 L1.98667298,7.60576357 C0.894102741,7.60576357 0,8.42959936 0,9.4363052 L0,16.3350477 C0,17.3414468 0.894102741,18.1655894 1.98667298,18.1655894 L6.46251467,18.1655894 C8.76220686,19.7595659 11.061233,21.3544629 13.3599262,22.9493598 C14.4082076,23.6759308 15.6219895,23.5593358 15.6219895,22.2988824 L15.6219895,17.8912843 C15.6219895,17.3558677 15.5350767,17.2095103 15.1204928,16.8272014 C11.88141,13.842676 8.64266016,10.8581506 5.40357735,7.87362526 C5.11819707,7.61005918 5.09855012,7.60576357 4.69395614,7.60576357 L4.69395614,7.60576357 Z" id="Shape"></path>
                    <path d="M9.87630537,4.08096953 C9.30196245,4.60984503 5.08669707,7.94984791 5.59545256,8.57181968 C6.42383869,9.5857232 9.7148186,14.2318679 11.7525397,16.0000004 C13.7295113,17.7154204 14.6564275,17.987087 15.4602958,18.9705452 C15.8241068,19.4209538 15.4602955,2.14589698 15.4602955,2.14589698 C15.4602955,0.324313217 14.1394879,0.155409977 12.9987741,1.2051813 C11.9580719,2.16407292 10.9173698,3.12252122 9.87630537,4.08096953 Z" id="Shape"></path>
                </g>
            </g>
        </g>
    </g>
</svg>